<svg xmlns="http://www.w3.org/2000/svg" viewBox="0 0 747.51 159.08"><defs><style>.cls-1{fill:#f99600;}</style></defs><g id="Calque_2" data-name="Calque 2"><g id="Calque_1-2" data-name="Calque 1"><path class="cls-1" d="M80.41,0H110V106.83a48.26,48.26,0,0,1-4.35,20.32,49.14,49.14,0,0,1-12.2,16.55,58,58,0,0,1-38.89,15.09,57.45,57.45,0,0,1-21.2-4.06A54.17,54.17,0,0,1,16,143.7,51.71,51.71,0,0,1,4.35,127.15,48.26,48.26,0,0,1,0,106.83H28.16a21.08,21.08,0,0,0,2,9.58,29.45,29.45,0,0,0,5.52,7.84,28.19,28.19,0,0,0,8.41,5.51,24.51,24.51,0,0,0,10.16,2,24.52,24.52,0,0,0,10.17-2,26.13,26.13,0,0,0,13.64-13.64,23.2,23.2,0,0,0,2-9.87V0Z"/><path class="cls-1" d="M136.15,102.47a52,52,0,0,1,4.64-22.06,60.8,60.8,0,0,1,12.48-18,53.88,53.88,0,0,1,18.58-11.9,61.87,61.87,0,0,1,45.58,0A58.37,58.37,0,0,1,236,62.41a55.72,55.72,0,0,1,12.48,18,54,54,0,0,1,0,43.84,60.57,60.57,0,0,1-12.48,18,57.44,57.44,0,0,1-18.58,12.2,61.87,61.87,0,0,1-45.58,0,54.59,54.59,0,0,1-18.58-12.2,60.76,60.76,0,0,1-12.48-18A51.61,51.61,0,0,1,136.15,102.47Zm26.7,0a28.47,28.47,0,0,0,2.62,11.91,33.06,33.06,0,0,0,6.67,9.87,31,31,0,0,0,10.16,6.67,35.4,35.4,0,0,0,12.49,2.32A33.76,33.76,0,0,0,207,130.92a29.46,29.46,0,0,0,10.16-6.67,28.59,28.59,0,0,0,6.68-9.87,28.46,28.46,0,0,0,0-23.81,33.15,33.15,0,0,0-6.68-9.87A26.35,26.35,0,0,0,207,74.32,33.55,33.55,0,0,0,194.79,72a36.43,36.43,0,0,0-12.49,2.33,30.38,30.38,0,0,0-10.16,6.38,28.33,28.33,0,0,0-6.67,9.87A26.6,26.6,0,0,0,162.85,102.47Z"/><path class="cls-1" d="M555.91,71.7h25.84v85.93H555.91Z"/><path class="cls-1" d="M611.36,157.63V131.21L668,72.57H612.81V47H706v26.7L649.1,131.79h58.35v25.55H611.36Z"/><circle class="cls-1" cx="734.44" cy="145.15" r="13.06"/><circle class="cls-1" cx="568.69" cy="45.87" r="13.06"/><path class="cls-1" d="M374.77,63.86A60.56,60.56,0,0,0,356.48,52a58.32,58.32,0,0,0-22.64-4.35,52.79,52.79,0,0,0-30.77,9.29V.29h-27V103.34a49.41,49.41,0,0,0,4.64,21.49c3.2,6.67,7,12.77,12.2,17.7a61.14,61.14,0,0,0,18.28,12.2,58.37,58.37,0,0,0,22.65,4.35,60.21,60.21,0,0,0,23.22-4.35,56.19,56.19,0,0,0,18.29-12.2,56.84,56.84,0,0,0,12.19-17.7,53.72,53.72,0,0,0,4.36-21.49,49.41,49.41,0,0,0-4.65-21.48A54.11,54.11,0,0,0,374.77,63.86ZM362.29,115a28.69,28.69,0,0,1-6.68,9.58,26.35,26.35,0,0,1-10.16,6.38,33.76,33.76,0,0,1-12.19,2.32,31.13,31.13,0,0,1-11.91-2.32,32.22,32.22,0,0,1-9.87-6.38,35.78,35.78,0,0,1-6.67-9.58,32.27,32.27,0,0,1-2.32-11.91,31.92,31.92,0,0,1,2.32-11.61,24.94,24.94,0,0,1,6.67-9.58,33.06,33.06,0,0,1,9.87-6.67,32.07,32.07,0,0,1,11.91-2.33,36.06,36.06,0,0,1,12.19,2.33,29.46,29.46,0,0,1,10.16,6.67,30.43,30.43,0,0,1,6.68,9.58,27.16,27.16,0,0,1,2.61,11.61A28.46,28.46,0,0,1,362.29,115Z"/><path class="cls-1" d="M525.14,81.28A53.82,53.82,0,0,0,513,63.57a60.56,60.56,0,0,0-18.29-11.9A58.32,58.32,0,0,0,472,47.32a52.77,52.77,0,0,0-30.77,9.29V0h-27V103.05a49.41,49.41,0,0,0,4.64,21.49c3.2,6.67,7,12.77,12.2,17.7a61.14,61.14,0,0,0,18.28,12.2A58.37,58.37,0,0,0,472,158.79a60.21,60.21,0,0,0,23.22-4.35,56.19,56.19,0,0,0,18.29-12.2,56.84,56.84,0,0,0,12.19-17.7,53.72,53.72,0,0,0,4.36-21.49A56.78,56.78,0,0,0,525.14,81.28ZM500.76,115a28.69,28.69,0,0,1-6.68,9.58,26.35,26.35,0,0,1-10.16,6.38,33.76,33.76,0,0,1-12.19,2.32,31.13,31.13,0,0,1-11.91-2.32,32.22,32.22,0,0,1-9.87-6.38,35.78,35.78,0,0,1-6.67-9.58A32.27,32.27,0,0,1,441,103.05a31.92,31.92,0,0,1,2.32-11.61A24.94,24.94,0,0,1,450,81.86a33.06,33.06,0,0,1,9.87-6.67,32.07,32.07,0,0,1,11.91-2.33,36.06,36.06,0,0,1,12.19,2.33,29.46,29.46,0,0,1,10.16,6.67,30.43,30.43,0,0,1,6.68,9.58,27.16,27.16,0,0,1,2.61,11.61A41.68,41.68,0,0,1,500.76,115Z"/></g></g></svg>